<svg width="24" height="25" viewBox="0 0 24 25" fill="none" xmlns="http://www.w3.org/2000/svg">
<g id="Frame">
<path id="Vector" d="M8.02742 19.2389C8.02742 19.3357 7.91613 19.4132 7.77581 19.4132C7.61613 19.4277 7.50484 19.3502 7.50484 19.2389C7.50484 19.1421 7.61613 19.0646 7.75645 19.0646C7.90161 19.0501 8.02742 19.1275 8.02742 19.2389ZM6.52258 19.021C6.48871 19.1179 6.58548 19.2292 6.73065 19.2582C6.85645 19.3067 7.00161 19.2582 7.03064 19.1614C7.05968 19.0646 6.96774 18.9533 6.82258 18.9097C6.69677 18.8758 6.55645 18.9242 6.52258 19.021ZM8.66129 18.9387C8.52097 18.9726 8.42419 19.0646 8.43871 19.176C8.45323 19.2728 8.57903 19.3357 8.72419 19.3018C8.86452 19.2679 8.96129 19.176 8.94677 19.0791C8.93226 18.9871 8.80161 18.9242 8.66129 18.9387ZM11.8452 0.387299C5.13387 0.387299 0 5.48507 0 12.1998C0 17.5687 3.37742 22.163 8.20161 23.7799C8.82097 23.8913 9.03871 23.5088 9.03871 23.1941C9.03871 22.894 9.02419 21.2383 9.02419 20.2216C9.02419 20.2216 5.6371 20.9478 4.92581 18.779C4.92581 18.779 4.37419 17.3702 3.58065 17.0071C3.58065 17.0071 2.47258 16.247 3.65806 16.2616C3.65806 16.2616 4.8629 16.3584 5.52581 17.5106C6.58548 19.3793 8.36129 18.8419 9.05323 18.5224C9.16452 17.7478 9.47903 17.2104 9.82742 16.8909C7.12258 16.5908 4.39355 16.1986 4.39355 11.5414C4.39355 10.2101 4.76129 9.54199 5.53548 8.68994C5.40968 8.37526 4.99839 7.07782 5.66129 5.40277C6.67258 5.08809 9 6.70989 9 6.70989C9.96774 6.43878 11.0081 6.29839 12.0387 6.29839C13.0694 6.29839 14.1097 6.43878 15.0774 6.70989C15.0774 6.70989 17.4048 5.08325 18.4161 5.40277C19.079 7.08266 18.6677 8.37526 18.5419 8.68994C19.3161 9.54683 19.7903 10.2149 19.7903 11.5414C19.7903 16.2131 16.9403 16.5859 14.2355 16.8909C14.6806 17.2734 15.0581 17.9995 15.0581 19.1372C15.0581 20.7687 15.0435 22.7875 15.0435 23.1845C15.0435 23.4991 15.2661 23.8816 15.8806 23.7702C20.7194 22.163 24 17.5687 24 12.1998C24 5.48507 18.5565 0.387299 11.8452 0.387299ZM4.70323 17.0846C4.64032 17.133 4.65484 17.2443 4.7371 17.3363C4.81452 17.4138 4.92581 17.4476 4.98871 17.3847C5.05161 17.3363 5.0371 17.225 4.95484 17.133C4.87742 17.0555 4.76613 17.0216 4.70323 17.0846ZM4.18064 16.6924C4.14677 16.7554 4.19516 16.8328 4.29194 16.8812C4.36935 16.9296 4.46613 16.9151 4.5 16.8473C4.53387 16.7844 4.48548 16.7069 4.38871 16.6585C4.29194 16.6295 4.21452 16.644 4.18064 16.6924ZM5.74839 18.4159C5.67097 18.4788 5.7 18.6241 5.81129 18.716C5.92258 18.8274 6.0629 18.8419 6.12581 18.7645C6.18871 18.7015 6.15968 18.5563 6.0629 18.4643C5.95645 18.3529 5.81129 18.3384 5.74839 18.4159ZM5.19677 17.7042C5.11935 17.7526 5.11935 17.8785 5.19677 17.9899C5.27419 18.1012 5.40484 18.1496 5.46774 18.1012C5.54516 18.0383 5.54516 17.9124 5.46774 17.8011C5.4 17.6897 5.27419 17.6413 5.19677 17.7042Z" fill="black" fill-opacity="0.34"/>
</g>
</svg>
