<svg width="22" height="24" viewBox="0 0 22 24" fill="none" xmlns="http://www.w3.org/2000/svg">
<g id="Frame" clip-path="url(#clip0_12_843)">
<path id="Vector" d="M4.717 21.0001H0.348084V6.97975H4.717V21.0001ZM2.53019 5.06725C1.13315 5.06725 0 3.91413 0 2.52194C9.9994e-09 1.85322 0.266573 1.21189 0.741076 0.739037C1.21558 0.266181 1.85914 0.000534058 2.53019 0.000534058C3.20124 0.000534058 3.8448 0.266181 4.31931 0.739037C4.79381 1.21189 5.06038 1.85322 5.06038 2.52194C5.06038 3.91413 3.92676 5.06725 2.53019 5.06725ZM21.0685 21.0001H16.709V14.1751C16.709 12.5485 16.676 10.4626 14.4375 10.4626C12.166 10.4626 11.8179 12.2298 11.8179 14.0579V21.0001H7.45369V6.97975H11.6439V8.89225H11.705C12.2883 7.79069 13.7131 6.62819 15.8387 6.62819C20.2603 6.62819 21.0732 9.52975 21.0732 13.2985V21.0001H21.0685Z" fill="black" fill-opacity="0.34"/>
</g>
<defs>
<clipPath id="clip0_12_843">
<rect width="21.0732" height="24" fill="white"/>
</clipPath>
</defs>
</svg>
